<?xml version="1.0" standalone="no"?>
<!DOCTYPE svg PUBLIC "-//W3C//DTD SVG 20010904//EN"
 "http://www.w3.org/TR/2001/REC-SVG-20010904/DTD/svg10.dtd">
<svg version="1.0" xmlns="http://www.w3.org/2000/svg"
 width="1000.000000pt" height="1000.000000pt" viewBox="0 0 1000.000000 1000.000000"
 preserveAspectRatio="xMidYMid meet">
<metadata>
Created by potrace 1.14, written by Peter Selinger 2001-2017
</metadata>
<g transform="translate(0.000000,1000.000000) scale(0.100000,-0.100000)"
fill="#000000" stroke="none">
<path d="M4608 9125 c-1 -1 -25 -6 -53 -9 -64 -9 -97 -17 -110 -27 -5 -4 -14
-7 -18 -7 -18 1 -97 -34 -97 -43 0 -5 -7 -9 -15 -9 -8 0 -15 -4 -15 -9 0 -5
-9 -13 -21 -16 -14 -5 -36 -39 -66 -101 -25 -52 -51 -94 -57 -94 -6 0 -22 9
-36 20 -18 14 -41 20 -83 20 -49 0 -66 -5 -105 -32 -59 -40 -74 -57 -97 -110
-11 -24 -22 -45 -26 -48 -3 -3 -14 -26 -23 -52 -10 -25 -25 -49 -35 -51 -22
-8 -75 -40 -79 -49 -2 -5 -8 -8 -13 -8 -17 0 -62 -42 -139 -129 -30 -35 -70
-79 -88 -99 -45 -50 -87 -139 -108 -228 -18 -74 -18 -74 -51 -74 -18 0 -33 -4
-33 -10 0 -5 -4 -10 -10 -10 -36 0 -88 -86 -97 -159 -5 -47 -7 -49 -47 -61
-78 -23 -122 -49 -168 -97 -25 -27 -51 -59 -57 -72 -14 -25 -7 -104 9 -109 6
-2 1 -17 -11 -33 -31 -44 -95 -188 -110 -248 -11 -44 -18 -55 -41 -63 -16 -6
-29 -14 -29 -19 -3 -18 -5 -24 -15 -44 -9 -19 -10 -60 -2 -95 7 -27 33 -80 39
-80 4 0 14 -18 23 -40 9 -23 29 -48 47 -59 17 -10 26 -22 20 -25 -5 -4 -31
-38 -56 -77 -26 -38 -49 -68 -52 -65 -12 12 -60 -18 -83 -51 -29 -43 -35 -116
-14 -176 8 -22 14 -53 14 -70 0 -22 10 -40 41 -68 41 -38 41 -39 28 -71 -8
-18 -14 -35 -15 -38 0 -3 -5 -16 -11 -30 -6 -14 -18 -57 -28 -97 -10 -39 -25
-80 -34 -90 -67 -72 -143 -258 -142 -347 0 -44 6 -91 11 -91 1 0 3 -7 5 -15 2
-8 6 -22 9 -31 5 -11 -6 -24 -36 -44 -78 -52 -172 -160 -214 -250 -16 -33 -29
-62 -30 -65 0 -3 -4 -12 -7 -20 -12 -29 -29 -116 -33 -179 -3 -35 -16 -96 -29
-135 -39 -117 -48 -311 -20 -446 3 -14 8 -38 11 -55 2 -16 10 -48 15 -70 6
-22 11 -42 11 -45 0 -3 4 -11 10 -17 6 -7 8 -13 4 -13 -4 0 0 -13 9 -30 8 -16
16 -33 16 -37 1 -8 15 -47 26 -73 3 -8 5 -18 5 -22 -1 -5 3 -8 10 -8 6 0 9 -3
5 -6 -3 -3 6 -25 19 -47 14 -23 27 -50 31 -59 3 -10 9 -18 14 -18 5 0 9 -7 9
-15 0 -8 5 -15 10 -15 6 0 10 -6 10 -13 0 -23 146 -163 207 -200 56 -33 139
-67 167 -67 24 0 47 -37 81 -132 44 -124 47 -143 48 -278 0 -115 -22 -257 -61
-390 -9 -30 -17 -59 -18 -65 -1 -5 -12 -52 -23 -104 -27 -118 -29 -189 -5
-193 14 -2 66 110 123 262 103 280 131 406 127 576 -2 97 0 110 12 97 13 -12
16 -12 27 4 7 10 20 41 28 68 9 28 16 46 17 40 1 -5 3 -17 5 -25 2 -8 16 -60
30 -115 14 -55 28 -111 30 -125 3 -14 7 -36 10 -50 3 -14 7 -36 10 -50 3 -14
7 -34 9 -45 8 -43 22 -136 30 -205 8 -71 20 -164 22 -172 1 -5 2 -20 3 -35 2
-39 37 -94 55 -87 19 7 36 55 44 124 10 80 8 402 -2 490 -4 41 -10 89 -11 105
-5 45 -16 109 -22 118 -2 4 -1 7 4 7 4 0 22 -22 38 -49 17 -26 46 -67 65 -92
45 -56 252 -269 263 -269 4 0 18 -10 30 -21 34 -33 155 -121 225 -164 54 -33
61 -40 45 -48 -34 -18 -65 -52 -79 -87 -17 -39 -11 -129 9 -142 6 -4 8 -8 2
-8 -6 0 -5 -3 1 -8 6 -4 26 -32 45 -62 60 -98 47 -194 -41 -288 -27 -30 -54
-69 -61 -89 -15 -45 -6 -138 15 -159 16 -15 15 -17 -1 -30 -10 -7 -22 -14 -28
-14 -5 0 -39 -15 -75 -34 -36 -18 -94 -48 -130 -67 -36 -18 -67 -36 -70 -39
-3 -3 -16 -11 -30 -18 -14 -7 -43 -23 -65 -37 -22 -14 -55 -33 -72 -42 -18 -9
-33 -20 -33 -25 0 -4 -6 -8 -12 -8 -7 0 -26 -11 -42 -25 -16 -14 -32 -25 -36
-25 -4 0 -18 -10 -31 -21 -45 -40 -73 -54 -109 -54 -46 -1 -131 -30 -158 -55
-12 -11 -25 -20 -30 -20 -5 0 -31 -23 -58 -51 -27 -28 -56 -59 -65 -68 -60
-59 -218 -344 -342 -611 -19 -41 -46 -100 -61 -131 -14 -31 -26 -61 -26 -67 0
-7 -4 -12 -10 -12 -5 0 -10 -6 -10 -13 0 -7 -11 -35 -24 -63 -13 -27 -45 -96
-71 -154 -26 -58 -52 -111 -58 -117 -7 -10 560 -13 2831 -13 l2841 0 -34 67
c-62 127 -89 188 -87 196 1 4 -2 7 -8 7 -6 0 -9 3 -8 8 2 4 -8 30 -21 57 -13
28 -39 84 -58 125 -19 41 -48 104 -66 140 -17 36 -31 68 -29 73 1 4 -3 7 -10
7 -6 0 -9 2 -6 5 3 3 -22 59 -55 123 -33 64 -69 135 -81 157 -11 22 -24 42
-28 43 -4 2 -8 8 -8 13 0 10 -62 103 -72 107 -5 2 -8 8 -8 14 0 6 -12 23 -27
37 -16 15 -40 41 -54 57 -14 17 -38 40 -55 50 -16 10 -38 27 -48 36 -28 25
-140 60 -175 55 -19 -3 -36 1 -48 12 -61 58 -316 213 -504 307 -71 35 -129 68
-129 72 0 4 5 13 12 20 6 6 13 22 15 34 10 82 -5 140 -49 189 -65 72 -76 90
-87 137 -18 74 -5 139 35 179 34 34 58 90 60 137 1 28 -1 56 -4 61 -4 6 -7 16
-8 23 -3 14 -61 74 -87 89 -16 8 -14 12 22 36 22 15 45 27 50 27 5 0 11 3 13
8 2 4 22 20 46 35 23 15 52 35 63 45 41 34 57 47 100 82 95 78 230 222 314
337 8 10 10 -13 10 -79 -1 -75 13 -193 29 -253 20 -74 30 -102 38 -112 6 -7 7
-13 3 -13 -4 0 0 -11 9 -25 9 -14 14 -25 11 -25 -3 0 5 -20 19 -44 13 -24 22
-47 19 -50 -4 -3 -1 -6 6 -6 7 0 9 -5 6 -10 -3 -5 -1 -10 5 -10 6 0 8 -4 5
-10 -3 -5 -1 -10 6 -10 7 0 10 -3 6 -6 -3 -3 4 -23 16 -43 12 -20 51 -94 87
-166 65 -133 78 -151 94 -135 13 13 9 106 -8 165 -2 6 -6 24 -11 40 -4 17 -10
35 -14 40 -3 6 -6 13 -7 18 -1 4 -2 8 -4 10 -1 1 -3 9 -5 17 -2 8 -15 47 -29
85 -15 39 -29 77 -32 85 -3 8 -5 16 -4 18 0 1 -7 16 -15 32 -9 17 -13 30 -9
30 4 0 1 7 -6 15 -7 8 -10 15 -7 15 4 0 0 19 -9 41 -23 66 -26 87 -30 209 -4
151 19 263 91 423 20 45 29 56 38 48 9 -7 11 -26 7 -63 -11 -107 -3 -422 14
-524 3 -16 7 -47 11 -69 5 -41 10 -65 21 -107 3 -13 7 -33 10 -45 2 -12 9 -35
16 -50 6 -16 12 -30 12 -33 3 -16 37 -53 43 -46 7 7 8 35 3 341 -2 132 6 348
15 394 2 9 6 44 10 76 10 93 9 92 71 98 112 12 268 110 346 218 62 85 80 114
108 169 141 279 195 659 126 880 -13 43 -69 150 -78 150 -4 0 -8 5 -8 12 0 6
-15 25 -33 42 -19 17 -34 38 -34 46 -1 41 -22 141 -34 155 -4 6 -8 13 -8 18
-1 12 -41 101 -49 107 -13 10 -60 85 -67 107 -4 15 1 32 15 50 11 16 22 47 24
70 4 36 1 46 -21 62 -13 11 -33 23 -44 26 -14 5 -18 12 -14 25 13 40 19 100
19 189 1 89 2 96 29 122 23 23 26 33 22 66 -12 80 -41 142 -87 184 -24 22 -24
24 21 65 66 59 90 164 55 240 -27 59 -54 81 -122 100 -36 10 -62 23 -62 31 0
7 -4 13 -10 13 -5 0 -10 7 -10 15 0 8 -4 15 -10 15 -5 0 -10 5 -10 12 0 6 -9
21 -20 33 -19 20 -19 21 25 84 61 88 79 139 72 202 -7 59 -27 95 -62 111 -20
9 -27 20 -40 71 -2 4 -3 8 -5 10 -1 1 -3 9 -5 18 -1 9 -18 48 -36 85 -28 58
-34 80 -34 139 0 60 -4 76 -27 108 -72 102 -161 159 -305 198 l-81 22 0 42 c0
78 -33 162 -74 193 -9 7 -24 19 -32 28 -19 19 -77 43 -92 37 -6 -2 -26 11 -46
29 -78 73 -107 97 -149 124 -39 25 -61 47 -65 64 -10 48 -54 99 -114 133 -40
22 -141 58 -158 56 -25 -4 -44 5 -75 34 -19 19 -49 39 -66 47 -25 10 -40 31
-77 109 -26 53 -54 101 -63 107 -9 7 -36 30 -61 53 -42 40 -140 99 -140 85 0
-4 -7 -1 -15 6 -20 16 -73 19 -86 4 -8 -9 -26 -3 -75 27 -36 22 -77 45 -92 50
-15 6 -40 16 -57 24 -106 48 -264 84 -363 83 -67 -1 -84 3 -123 25 -35 21 -57
26 -106 26 -34 0 -63 -2 -65 -4z m2424 -1545 l9 -24 -28 24 c-15 14 -32 28
-37 32 -5 4 4 4 19 0 16 -5 32 -18 37 -32z m428 -1505 c0 -5 -5 -3 -10 5 -5 8
-10 20 -10 25 0 6 5 3 10 -5 5 -8 10 -19 10 -25z m-4870 -296 c-11 -38 -20
-49 -20 -25 0 17 17 56 25 56 2 0 0 -14 -5 -31z m352 -2375 c3 -81 -5 -99 -17
-39 -5 26 -12 54 -14 63 -1 1 -1 5 -2 10 -1 4 -5 15 -10 24 -6 11 -5 18 4 21
32 10 36 3 39 -79z"/>
</g>
</svg>
